<svg width="52" height="72" viewBox="0 0 62 100" fill="none" xmlns="http://www.w3.org/2000/svg">
<mask id="path-1-inside-1_39_155" fill="white">
<path fill-rule="evenodd" clip-rule="evenodd" d="M50 0C22.3858 0 0 22.3858 0 50C0 77.6142 22.3858 100 50 100H58.0189C59.9414 100 61.5 98.4414 61.5 96.5189V3.48113C61.5 1.55856 59.9414 0 58.0189 0H50ZM59.66 42C55.2417 42 51.66 45.5817 51.66 50C51.66 54.4183 55.2417 58 59.66 58H61.5V42H59.66Z"/>
</mask>
<path fill-rule="evenodd" clip-rule="evenodd" d="M50 0C22.3858 0 0 22.3858 0 50C0 77.6142 22.3858 100 50 100H58.0189C59.9414 100 61.5 98.4414 61.5 96.5189V3.48113C61.5 1.55856 59.9414 0 58.0189 0H50ZM59.66 42C55.2417 42 51.66 45.5817 51.66 50C51.66 54.4183 55.2417 58 59.66 58H61.5V42H59.66Z" fill="url(#paint0_linear_39_155)"/>
<path d="M61.5 58V59H62.5V58H61.5ZM61.5 42H62.5V41H61.5V42ZM1 50C1 22.938 22.938 1 50 1V-1C21.8335 -1 -1 21.8335 -1 50H1ZM50 99C22.938 99 1 77.062 1 50H-1C-1 78.1665 21.8335 101 50 101V99ZM58.0189 99H50V101H58.0189V99ZM60.5 96.5189C60.5 97.8892 59.3892 99 58.0189 99V101C60.4937 101 62.5 98.9937 62.5 96.5189H60.5ZM60.5 3.48113V96.5189H62.5V3.48113H60.5ZM58.0189 1C59.3892 1 60.5 2.11084 60.5 3.48113H62.5C62.5 1.00627 60.4937 -1 58.0189 -1V1ZM50 1H58.0189V-1H50V1ZM52.66 50C52.66 46.134 55.794 43 59.66 43V41C54.6894 41 50.66 45.0294 50.66 50H52.66ZM59.66 57C55.794 57 52.66 53.866 52.66 50H50.66C50.66 54.9706 54.6894 59 59.66 59V57ZM61.5 57H59.66V59H61.5V57ZM60.5 42V58H62.5V42H60.5ZM59.66 43H61.5V41H59.66V43Z" fill="url(#paint1_linear_39_155)" fill-opacity="0.5" mask="url(#path-1-inside-1_39_155)"/>
<defs>
<linearGradient id="paint0_linear_39_155" x1="30.75" y1="0" x2="30.75" y2="100" gradientUnits="userSpaceOnUse">
<stop stop-color="#0069BC"/>
<stop offset="1" stop-color="#0069BC" stop-opacity="0"/>
</linearGradient>
<linearGradient id="paint1_linear_39_155" x1="60.5" y1="1.28146e-06" x2="6.37499" y2="81.75" gradientUnits="userSpaceOnUse">
<stop stop-color="white"/>
<stop offset="1" stop-color="white" stop-opacity="0"/>
</linearGradient>
</defs>
</svg>
