<svg width="100" height="80" viewBox="0 0 117 100" fill="none" xmlns="http://www.w3.org/2000/svg">
<mask id="path-1-inside-1_37_349" fill="white">
<path fill-rule="evenodd" clip-rule="evenodd" d="M50 0C22.3858 0 0 22.3858 0 50C0 77.6142 22.3858 100 50 100H58.0189C59.9414 100 61.5 98.4414 61.5 96.5189V3.48113C61.5 1.55856 59.9414 0 58.0189 0H50ZM59.66 42C55.2417 42 51.66 45.5817 51.66 50C51.66 54.4183 55.2417 58 59.66 58H61.5V42H59.66Z"/>
</mask>
<path fill-rule="evenodd" clip-rule="evenodd" d="M50 0C22.3858 0 0 22.3858 0 50C0 77.6142 22.3858 100 50 100H58.0189C59.9414 100 61.5 98.4414 61.5 96.5189V3.48113C61.5 1.55856 59.9414 0 58.0189 0H50ZM59.66 42C55.2417 42 51.66 45.5817 51.66 50C51.66 54.4183 55.2417 58 59.66 58H61.5V42H59.66Z" fill="url(#paint0_linear_37_349)"/>
<path d="M61.5 58V59H62.5V58H61.5ZM61.5 42H62.5V41H61.5V42ZM1 50C1 22.938 22.938 1 50 1V-1C21.8335 -1 -1 21.8335 -1 50H1ZM50 99C22.938 99 1 77.062 1 50H-1C-1 78.1665 21.8335 101 50 101V99ZM58.0189 99H50V101H58.0189V99ZM60.5 96.5189C60.5 97.8892 59.3892 99 58.0189 99V101C60.4937 101 62.5 98.9937 62.5 96.5189H60.5ZM60.5 3.48113V96.5189H62.5V3.48113H60.5ZM58.0189 1C59.3892 1 60.5 2.11084 60.5 3.48113H62.5C62.5 1.00627 60.4937 -1 58.0189 -1V1ZM50 1H58.0189V-1H50V1ZM52.66 50C52.66 46.134 55.794 43 59.66 43V41C54.6894 41 50.66 45.0294 50.66 50H52.66ZM59.66 57C55.794 57 52.66 53.866 52.66 50H50.66C50.66 54.9706 54.6894 59 59.66 59V57ZM61.5 57H59.66V59H61.5V57ZM60.5 42V58H62.5V42H60.5ZM59.66 43H61.5V41H59.66V43Z" fill="url(#paint1_linear_37_349)" fill-opacity="0.5" mask="url(#path-1-inside-1_37_349)"/>
<path d="M55 52.381H105V56.25C105 80.4124 85.4125 100 61.25 100C57.7982 100 55 97.2018 55 93.75V52.381Z" fill="url(#paint2_linear_37_349)"/>
<path d="M55.5 52.881H104.5V56.25C104.5 80.1363 85.1363 99.5 61.25 99.5C58.0744 99.5 55.5 96.9256 55.5 93.75V52.881Z" stroke="url(#paint3_linear_37_349)" stroke-opacity="0.5"/>
<path d="M67 43.75C67 19.5875 86.5875 0 110.75 0C114.202 0 117 2.79822 117 6.25V47.5H67V43.75Z" fill="url(#paint4_linear_37_349)"/>
<path d="M67.5 43.75C67.5 19.8637 86.8637 0.5 110.75 0.5C113.926 0.5 116.5 3.07436 116.5 6.25V47H67.5V43.75Z" stroke="url(#paint5_linear_37_349)" stroke-opacity="0.5"/>
<defs>
<linearGradient id="paint0_linear_37_349" x1="30.75" y1="0" x2="30.75" y2="100" gradientUnits="userSpaceOnUse">
<stop stop-color="#0069BC"/>
<stop offset="1" stop-color="#0069BC" stop-opacity="0"/>
</linearGradient>
<linearGradient id="paint1_linear_37_349" x1="60.5" y1="1.28146e-06" x2="6.37499" y2="81.75" gradientUnits="userSpaceOnUse">
<stop stop-color="white"/>
<stop offset="1" stop-color="white" stop-opacity="0"/>
</linearGradient>
<linearGradient id="paint2_linear_37_349" x1="91.0887" y1="51.4286" x2="80.7239" y2="103.067" gradientUnits="userSpaceOnUse">
<stop stop-color="#FB52FE"/>
<stop offset="1" stop-color="#FB52FE" stop-opacity="0"/>
</linearGradient>
<linearGradient id="paint3_linear_37_349" x1="80" y1="52.381" x2="80" y2="100" gradientUnits="userSpaceOnUse">
<stop stop-color="white"/>
<stop offset="1" stop-color="white" stop-opacity="0"/>
</linearGradient>
<linearGradient id="paint4_linear_37_349" x1="103.089" y1="-0.949999" x2="92.7737" y2="50.5695" gradientUnits="userSpaceOnUse">
<stop stop-color="#FB52FE"/>
<stop offset="1" stop-color="#FB52FE" stop-opacity="0"/>
</linearGradient>
<linearGradient id="paint5_linear_37_349" x1="92" y1="0" x2="92" y2="47.5" gradientUnits="userSpaceOnUse">
<stop stop-color="white"/>
<stop offset="1" stop-color="white" stop-opacity="0"/>
</linearGradient>
</defs>
</svg>
